<svg width="116" height="117" viewBox="0 0 116 117" fill="none" xmlns="http://www.w3.org/2000/svg">
<g clip-path="url(#clip0)">
<path d="M58 10.9545C73.486 10.9545 75.3227 11.0125 81.4417 11.2928C97.1597 12.0082 104.501 19.466 105.217 35.068C105.497 41.1822 105.55 43.0188 105.55 58.5048C105.55 73.9957 105.492 75.8275 105.217 81.9417C104.497 97.5292 97.1742 105.001 81.4417 105.717C75.3227 105.997 73.4957 106.055 58 106.055C42.514 106.055 40.6773 105.997 34.5632 105.717C18.8065 104.997 11.5033 97.505 10.788 81.9368C10.5077 75.8227 10.4497 73.9908 10.4497 58.5C10.4497 43.014 10.5125 41.1822 10.788 35.0632C11.5082 19.466 18.8307 12.0033 34.5632 11.288C40.6822 11.0125 42.514 10.9545 58 10.9545ZM58 0.5C42.2482 0.5 40.2762 0.567667 34.0895 0.848C13.0258 1.81467 1.3195 13.5017 0.352833 34.5847C0.0676667 40.7762 0 42.7482 0 58.5C0 74.2518 0.0676667 76.2287 0.348 82.4153C1.31467 103.479 13.0017 115.185 34.0847 116.152C40.2762 116.432 42.2482 116.5 58 116.5C73.7518 116.5 75.7287 116.432 81.9153 116.152C102.96 115.185 114.695 103.498 115.647 82.4153C115.932 76.2287 116 74.2518 116 58.5C116 42.7482 115.932 40.7762 115.652 34.5895C114.705 13.5452 103.003 1.8195 81.9202 0.852833C75.7287 0.567667 73.7518 0.5 58 0.5ZM58 28.717C41.5522 28.717 28.217 42.0522 28.217 58.5C28.217 74.9478 41.5522 88.2878 58 88.2878C74.4478 88.2878 87.783 74.9527 87.783 58.5C87.783 42.0522 74.4478 28.717 58 28.717ZM58 77.8333C47.3232 77.8333 38.6667 69.1817 38.6667 58.5C38.6667 47.8232 47.3232 39.1667 58 39.1667C68.6768 39.1667 77.3333 47.8232 77.3333 58.5C77.3333 69.1817 68.6768 77.8333 58 77.8333ZM88.9623 20.5825C85.115 20.5825 81.9975 23.7 81.9975 27.5425C81.9975 31.385 85.115 34.5025 88.9623 34.5025C92.8048 34.5025 95.9175 31.385 95.9175 27.5425C95.9175 23.7 92.8048 20.5825 88.9623 20.5825Z" fill="white"/>
</g>
<defs>
<clipPath id="clip0">
<rect width="116" height="116" fill="white" transform="translate(0 0.5)"/>
</clipPath>
</defs>
</svg>
