<svg width="723" height="723" viewBox="0 0 723 723" fill="none" xmlns="http://www.w3.org/2000/svg">
<g clip-path="url(#clip0)">
<g clip-path="url(#clip1)">
<path d="M713.306 602.484C713.309 601.101 712.867 599.754 712.046 598.64C711.142 597.607 709.01 594.441 708.558 593.86C707.603 592.884 706.515 592.047 705.328 591.372C704.284 590.909 703.203 590.531 702.098 590.242C701.305 590.154 700.554 589.84 699.934 589.337C699.255 588.788 695.508 585.494 694.281 584.46C692.829 583.202 691.469 581.842 690.211 580.39C688.951 579.033 686.012 574.608 684.429 572.476C682.278 569.385 680.346 566.147 678.647 562.786C678.292 561.655 677.614 559.814 677.614 559.814L676.838 558.684C674.248 552.276 672.238 545.649 670.83 538.883C666.987 523.346 664.047 512.137 662.238 507.518C660.43 502.899 657.91 493.919 654.066 488.46C650.222 483.001 641.598 474.086 640.823 473.182C640.048 472.277 639.918 472.633 639.563 471.373C639.325 470.43 638.909 469.542 638.336 468.756C637.883 468.078 636.301 466.172 635.848 465.526C635.396 464.88 634.718 464.396 634.266 463.717C633.914 463.319 633.641 462.859 633.458 462.361C633.093 461.451 632.592 460.601 631.972 459.841C631.52 459.389 630.163 459.389 629.84 459.066C629.386 458.514 629.105 457.84 629.033 457.128C629.349 455.973 629.27 454.744 628.807 453.639C628.234 452.597 627.427 451.701 626.449 451.023C626.094 450.797 625.544 451.346 625.092 450.345C624.64 449.343 624.285 449.214 624.382 448.31C624.672 447.078 624.672 445.795 624.382 444.563C623.929 443.658 622.573 441.72 622.573 441.72C622.853 440.882 622.853 439.975 622.573 439.136C622.059 438.063 621.454 437.037 620.764 436.067C620.189 435.403 619.869 434.556 619.859 433.677C619.925 432.82 619.818 431.959 619.547 431.144C619.275 430.328 618.843 429.575 618.277 428.929C616.92 427.701 616.565 427.701 616.565 426.765C616.655 425.442 616.546 424.114 616.242 422.824C615.757 421.112 614.853 419.981 615.079 418.625C615.42 416.908 615.42 415.141 615.079 413.424C614.56 411.618 614.299 409.748 614.304 407.868C614.526 405.915 614.526 403.943 614.304 401.99C613.981 401.085 613.076 400.407 613.076 399.018V393.365C613.306 391.596 613.306 389.804 613.076 388.035C612.624 386.356 611.267 384.547 611.817 383.642C612.366 382.738 613.625 381.123 613.625 381.123C613.129 380.369 612.789 379.523 612.624 378.636C612.624 377.731 612.172 376.052 612.947 375.406C613.237 375.125 613.466 374.788 613.622 374.416C613.777 374.044 613.855 373.645 613.851 373.241C613.851 372.789 613.076 372.789 613.528 372.24C613.981 371.691 614.756 370.883 614.756 370.883C614.448 370.444 614.065 370.061 613.625 369.753C612.947 369.301 612.043 369.753 612.398 368.493C612.663 367.728 612.847 366.938 612.947 366.135C613.014 365.372 613.014 364.605 612.947 363.842C612.943 363.044 613.052 362.25 613.27 361.484C613.572 360.85 613.695 360.147 613.625 359.449C613.42 358.634 613.301 357.801 613.27 356.961C613.289 356.375 613.409 355.795 613.625 355.249C614.17 354.265 614.406 353.14 614.304 352.019C613.736 350.905 613.282 349.736 612.947 348.531C612.694 347.359 612.773 346.14 613.173 345.01C613.496 344.332 614.078 342.975 613.851 342.62C612.9 340.933 612.504 338.989 612.721 337.064C613.284 336.078 613.595 334.968 613.625 333.834C613.625 332.929 612.043 333.155 613.044 331.573C614.045 329.99 614.401 329.764 614.53 328.342C614.591 326.868 614.315 325.398 613.722 324.046C613.08 323.214 612.618 322.257 612.366 321.236C612.366 320.202 613.496 319.072 612.366 316.908C611.51 315.236 610.931 313.436 610.654 311.578C610.554 310.588 610.246 309.63 609.749 308.768C609.36 307.872 609.28 306.872 609.523 305.925C609.749 304.246 609.878 300.725 609.878 299.465C609.878 298.205 609.878 296.526 609.523 296.235C609.168 295.944 608.07 296.009 607.714 295.783C607.311 295.556 606.961 295.246 606.688 294.873C606.415 294.499 606.225 294.071 606.132 293.618C604.941 289.29 604.184 284.853 603.87 280.375C603.87 275.723 602.966 272.913 602.74 268.843C602.514 264.773 601.254 255.697 601.254 255.697C601.101 253.195 600.69 250.716 600.027 248.3C598.993 245.069 598.153 242.453 597.733 240.838C597.189 239.284 596.958 237.637 597.055 235.993C597.216 234.281 597.055 231.729 597.475 228.854C597.853 227.302 597.962 225.695 597.798 224.106C597.505 221.613 596.761 219.194 595.601 216.967C594.525 214.457 593.891 211.78 593.728 209.053C593.06 203.302 592.1 197.588 590.853 191.934C589.723 188.187 588.56 182.857 588.334 181.953C588.108 181.048 587.106 173.683 585.62 168.709C584.609 164.98 583.822 161.194 583.262 157.371L583.812 155.692C583.812 155.692 583.585 151.815 583.585 150.911C583.537 150.277 583.537 149.64 583.585 149.005C583.646 148.436 583.646 147.862 583.585 147.293C583.673 146.618 583.673 145.934 583.585 145.258C583.585 144.031 583.585 144.483 582.455 141.188C581.654 138.425 580.572 135.752 579.225 133.21C578.288 131.853 576.77 128.881 575.995 127.589C575.16 126.619 574.474 125.531 573.96 124.359C573.043 121.514 571.762 118.8 570.148 116.284C568.436 113.991 563.268 106.174 560.458 103.202C557.648 100.23 555.193 97.743 553.481 95.8049C551.545 93.5166 549.294 91.5154 546.795 89.8614C543.361 87.791 539.751 86.0291 536.006 84.5963C533.648 84.1764 528.964 82.8197 527.285 82.5613C524.889 82.2059 522.524 81.666 520.211 80.9463C518.337 80.2679 517.401 80.5909 516.496 79.9126C515.686 79.1678 514.99 78.308 514.429 77.3608V75.8426C514.429 75.4227 514.687 74.7444 514.429 74.3245C514.171 73.9046 514.946 74.7444 513.234 72.3541C511.522 69.9638 509.681 64.5372 508.97 63.7942C508.26 63.0513 508.13 62.4376 507.194 62.6637C506.082 63.067 504.95 63.412 503.802 63.6973C502.445 63.9557 495.985 65.8292 494.467 66.2491C492.949 66.669 490.72 67.5089 489.783 67.089C488.411 65.6101 487.63 63.6792 487.587 61.6623V55.9773C487.384 54.7248 487.038 53.5 486.553 52.3272H487.328L486.553 50.3569L486.973 49.9369L486.715 48.1604L487.425 47.7404L486.973 46.2869L488.265 45.3501L487.49 43.3152C487.49 43.3152 487.167 40.7634 487.167 40.408C487.418 39.6422 487.418 38.8159 487.167 38.05C486.715 36.435 485.972 34.0447 485.617 32.7849C485.261 31.5252 483.065 25.5494 483.065 25.5494L481.45 22.9976L481.644 22.3193C481.205 21.4693 480.663 20.6773 480.028 19.9613L476.96 16.7311L471.178 10.2709L471.856 9.85094L470.338 8.97881L468.562 7.97747L465.913 6.4593L462.683 4.68273V3.48758L459.453 2.55084L456.481 1.35569C455.134 0.799896 453.739 0.367439 452.314 0.0636308C451.358 -0.0206406 450.396 -0.0206406 449.439 0.0636308C447.824 0.257439 443.593 0.677357 442.979 0.935768C441.772 1.61422 440.463 2.0941 439.103 2.35703C437.553 2.55084 435.259 3.13226 435.259 3.13226L432.385 4.48892C431.27 4.89263 430.125 5.20589 428.961 5.42566L430.317 5.78097L425.795 8.20357C425.795 8.20357 426.312 8.20358 426.183 8.52659C426.054 8.8496 422.727 11.7567 422.177 12.2089C421.529 12.742 420.934 13.337 420.401 13.9855C420.401 14.2116 418.818 15.4391 418.269 15.8913C417.317 16.7425 416.461 17.6958 415.717 18.7338C415.071 19.6383 413.908 21.221 413.456 21.964C413.327 22.1113 413.255 22.3008 413.255 22.4969C413.255 22.6931 413.327 22.8825 413.456 23.0299C413.042 23.6854 412.53 24.2737 411.938 24.7742C411.352 25.1816 410.791 25.6238 410.258 26.0985L410.904 26.3246L408.902 29.1349H410.032C410.032 29.1349 408.417 31.719 408.223 31.8482C408.03 31.9774 408.869 32.1389 408.869 32.1389L406.802 34.5615H408.062C408.062 34.5615 408.805 34.5615 408.805 34.8522C408.805 35.1429 408.805 36.2735 408.805 37.2425C408.682 38.315 408.618 39.3932 408.611 40.4726C408.566 41.953 408.785 43.4295 409.257 44.8333C409.791 45.8781 410.255 46.9572 410.646 48.0635C411.05 49.1142 411.374 50.194 411.615 51.2936C411.615 52.1011 412.81 55.1375 413.036 56.1065C413.262 57.0755 413.618 58.5937 413.65 58.949C413.764 59.416 413.764 59.9034 413.65 60.3703C413.456 60.6287 413.65 60.9194 414.102 61.0486C414.554 61.1778 414.651 61.0486 414.877 61.307C415.103 61.5654 415.233 61.9531 415.717 61.9531C416.136 61.9197 416.558 61.9197 416.977 61.9531C417.33 62.0585 417.675 62.188 418.011 62.3407C418.082 62.4367 418.175 62.5155 418.281 62.5714C418.387 62.6273 418.504 62.6588 418.624 62.6637C418.883 62.6734 419.137 62.7395 419.367 62.8575C419.027 63.6241 418.735 64.4117 418.495 65.2155C419.055 64.4922 419.573 63.7372 420.046 62.9544C420.046 62.9544 419.69 64.731 419.755 64.5372C419.819 64.3433 420.982 63.1159 420.982 63.1159C421.183 63.9398 421.248 64.7906 421.176 65.6354C421.04 67.7867 421.04 69.9444 421.176 72.0957C421.274 73.3878 421.154 74.6873 420.821 75.9395C420.465 77.1633 420.465 78.4628 420.821 79.6865C421.273 80.5263 421.499 81.7861 422.791 82.1737C423.559 82.4504 424.366 82.603 425.181 82.6259C425.73 82.6727 426.281 82.6727 426.829 82.6259L427.733 82.4644L428.121 83.3689L428.347 84.3379H429.09C429.09 84.3379 428.928 85.9853 429.09 85.9853C429.217 86.0133 429.35 86.0133 429.477 85.9853L429.833 86.8897H430.382L430.834 87.7295L431.351 87.891C431.351 87.891 431.351 88.634 431.642 88.634C432.032 88.4928 432.41 88.3199 432.772 88.1172H432.643L433.257 87.891C433.257 87.891 433.773 87.891 433.773 88.2787C433.79 88.5691 433.79 88.8603 433.773 89.1508L434.064 89.3769L433.741 90.8951C433.741 90.8951 435.195 91.2827 435.033 91.4765C434.873 91.8139 434.765 92.1731 434.71 92.5424H435.647L435.841 93.0916H436.551C436.551 93.0916 436.842 93.6407 437.068 93.7053L438.489 94.0929V95.6757V97.1615L439.103 96.9031V98.1306L440.008 98.8412V99.8426L440.783 100.198V101.102L441.849 101.361L442.689 102.459H443.787C443.787 102.459 444.336 103.073 444.627 103.073H445.596C445.928 103.108 446.264 103.108 446.597 103.073C447.131 102.984 447.659 102.865 448.18 102.717L448.826 102.33C448.826 102.33 443.819 112.02 443.819 112.279C443.819 112.537 443.819 113.538 444.336 113.829C444.908 114.234 445.513 114.59 446.145 114.895C446.615 115.086 447.124 115.164 447.631 115.121C447.975 115.038 448.288 114.859 448.535 114.604C448.923 114.281 449.536 113.7 449.73 113.603C449.924 113.506 450.408 113.603 450.408 113.603C450.408 113.603 450.861 113.991 450.57 114.314C450.235 114.67 449.952 115.072 449.73 115.509C449.73 115.735 449.149 116.607 449.31 117.221C449.505 117.681 449.803 118.09 450.182 118.416C450.182 118.416 449.246 130.981 449.504 132.855C449.762 134.728 450.085 138.54 450.085 139.638C450.085 140.736 450.085 142.868 450.085 143.805C450.163 144.978 450.325 146.144 450.57 147.293C450.764 148.23 451.701 154.69 452.024 155.369C452.632 156.365 453.069 157.457 453.316 158.599C453.269 159.56 453.323 160.524 453.477 161.474C453.477 161.829 453.316 162.41 454.317 163.347C455.318 164.284 455.609 163.928 455.512 164.962C455.339 166.292 455.339 167.638 455.512 168.967C455.741 169.967 455.741 171.005 455.512 172.004C455.116 172.703 454.685 173.383 454.22 174.039C453.542 174.976 452.702 175.848 452.702 176.687C452.839 177.674 453.099 178.64 453.477 179.562C453.705 180.159 453.793 180.8 453.735 181.436C453.542 182.114 453.38 183.988 453.219 185.086C452.983 186.896 452.929 188.724 453.057 190.545C453.127 191.894 453.445 193.219 453.994 194.453C456.096 197.423 457.995 200.531 459.679 203.756C460.228 205.791 463.846 217.807 463.846 217.807C464.638 219.605 465.286 221.462 465.784 223.363C465.784 224.267 466.462 230.598 466.462 230.598C466.462 230.598 467.399 245.166 467.819 250.593C468.239 256.02 469.595 265.968 469.692 267.325C469.789 268.682 469.531 279.18 469.305 280.989C469.078 282.797 469.078 288.806 468.723 290.291C468.368 291.777 467.819 293.812 467.593 294.491C467.018 297.481 466.609 300.5 466.365 303.535C466.365 305.021 465.105 309.091 465.105 310.674C465.105 312.256 464.879 314.517 465.105 315.648C465.332 316.779 465.105 321.591 464.879 323.626C464.653 325.661 464.362 328.73 464.169 329.764C463.992 331.391 463.601 332.987 463.006 334.512C461.751 336.024 460.668 337.671 459.776 339.422C459.42 340.455 458.742 342.652 458.581 343.524C458.419 344.396 457.386 346.56 457.386 347.077C457.009 348.521 456.556 349.945 456.029 351.341V352.698C456.029 352.698 437.682 361.419 436.648 362.097C435.615 362.776 423.954 368.558 419.529 371.045C414.049 374.291 408.832 377.963 403.927 382.027C399.775 385.816 395.91 389.908 392.364 394.269C388.738 398.461 385.495 402.969 382.673 407.739C380.509 411.938 375.083 421.887 371.239 428.347C367.395 434.808 357.188 453.026 356.833 453.607C356.477 454.189 355.476 455.868 355.476 455.868C355.476 455.868 340.521 452.929 338.938 452.929C333.103 452.451 327.243 452.375 321.398 452.703C306.907 454.018 292.535 456.426 278.406 459.906C266.519 462.942 201.109 480.127 201.109 480.127C201.109 480.127 153.207 491.141 143.872 493.37C134.537 495.599 102.075 503.545 94.0963 506.775C86.4511 509.616 78.958 512.85 71.6471 516.466C68.417 518.501 65.6391 520.988 65.1869 523.346C65.1571 524.33 65.3442 525.31 65.735 526.214C66.1257 527.118 66.7105 527.925 67.448 528.579C68.2555 529.354 77.1383 533.101 78.4303 533.908C80.575 534.996 82.6563 536.203 84.6644 537.526C85.5303 538.166 86.265 538.967 86.8286 539.884C86.8286 540.239 86.6025 565.144 85.9241 565.725C84.3815 566.633 82.6839 567.246 80.9175 567.534C78.1753 568.511 75.5267 569.732 73.0037 571.184C71.5911 571.869 70.2308 572.657 68.9338 573.542C68.0294 574.35 68.3524 574.576 67.125 574.673C65.601 574.932 64.1612 575.552 62.9258 576.482L60.3095 579.001V579.905C59.4712 580.668 58.5628 581.349 57.5962 581.94C57.2732 581.94 57.0471 581.714 56.5625 581.94C55.599 582.543 54.7285 583.283 53.9785 584.137C53.4595 584.746 52.9097 585.328 52.3311 585.881C52.1771 586.268 52.0582 586.668 51.9758 587.076C51.6455 587.735 51.209 588.336 50.6838 588.853C49.8439 589.628 49.0364 590.662 48.8749 590.726C48.7134 590.791 48.3258 590.533 47.8736 590.726C47.2164 591.178 46.638 591.734 46.1616 592.374C45.5802 593.084 44.7404 594.506 44.4497 594.958C44.3785 595.121 44.3418 595.297 44.3418 595.475C44.3418 595.653 44.3785 595.829 44.4497 595.992C44.495 596.07 44.5189 596.159 44.5189 596.25C44.5189 596.341 44.495 596.43 44.4497 596.508C44.2559 596.734 43.1576 598.253 42.9315 598.576C42.7054 598.899 42.2209 600.126 41.7687 600.191C41.3165 600.255 40.9612 600.191 40.7351 600.514C40.5089 600.837 38.1187 604.713 38.0864 604.939C38.0541 605.165 37.8603 605.908 38.0864 606.005C38.3125 606.102 38.0864 607.136 38.0864 607.297L36.5036 610.204L35.7607 610.979C35.4353 611.256 35.1329 611.558 34.8563 611.884C34.8563 612.078 33.2089 615.792 33.2089 616.212C33.2412 616.685 33.2412 617.16 33.2089 617.633C33.2089 617.957 32.2722 620.218 32.0461 620.864C31.82 621.51 30.6894 624.901 30.6894 625.127V628.584C30.6954 629.157 30.5969 629.726 30.3987 630.263C29.9308 631.384 29.5527 632.539 29.2682 633.72C29.0744 634.689 29.6558 635.27 28.5253 636.465C27.3947 637.66 23.3571 639.857 21.7744 641.278C18.5324 643.728 15.5066 646.451 12.7301 649.418C10.8892 651.799 9.76829 654.657 9.5 657.655C9.58578 660.917 10.7182 664.065 12.7301 666.635C15.333 668.385 18.2879 669.542 21.3868 670.026C24.035 670.492 26.711 670.784 29.3974 670.898C30.4885 670.964 31.5705 671.137 32.6275 671.415C32.6275 671.415 35.8576 677.003 35.8576 677.876C36.3467 679.311 36.9517 680.705 37.6665 682.042C38.1187 682.721 39.8306 686.823 40.3797 687.501C40.9289 688.18 42.8023 691.797 43.093 692.024C43.6666 692.368 44.1886 692.792 44.6435 693.283L46.9045 696.223C47.5093 696.9 48.1683 697.526 48.8749 698.096C49.101 698.096 57.144 705.202 57.6608 705.655C60.2079 707.703 62.8718 709.601 65.6391 711.34C66.8989 711.857 69.9998 713.246 70.452 713.375C70.9042 713.504 76.9122 716.992 77.4613 717.412C78.2685 717.984 79.163 718.42 80.11 718.704C80.7931 718.741 81.4575 718.94 82.048 719.286C82.8232 719.706 89.8649 722.096 90.1233 722.096C90.691 722.178 91.2675 722.178 91.8352 722.096C92.352 721.935 97.8755 722.774 98.8768 722.774C100.103 722.677 101.322 722.505 102.527 722.258C102.527 722.258 109.245 721.935 110.182 721.935C111.378 722.022 112.58 721.902 113.735 721.579C114.769 721.159 123.103 719.641 123.942 719.027C125.093 717.947 126.413 717.063 127.851 716.411C130.501 715.232 133.05 713.838 135.474 712.244C136.152 711.76 136.927 709.886 137.864 709.466C139.772 708.507 141.616 707.428 143.388 706.236C144.377 705.472 145.463 704.842 146.618 704.363C147.663 703.801 148.639 703.118 149.525 702.328C150.235 701.562 150.883 700.741 151.463 699.873C151.977 698.843 152.641 697.896 153.433 697.063C153.904 696.625 154.484 696.324 155.113 696.19C155.953 696.029 156.146 695.609 157.245 694.511C158.196 693.501 158.942 692.316 159.441 691.022C159.441 690.602 158.924 690.247 159.7 689.666C160.475 689.084 160.636 687.695 161.412 687.469C162.187 687.243 163.608 686.532 163.608 686.532C163.608 686.532 166.321 682.204 166.418 681.752C166.515 681.299 165.578 681.332 166.16 680.33C166.709 679.293 167.37 678.318 168.13 677.423C168.453 677.165 170.23 676.228 170.23 676.228L171.942 670.802C171.854 670.158 171.854 669.506 171.942 668.863C172.103 668.088 172.717 665.795 172.814 665.633C173.023 665.48 173.218 665.307 173.395 665.116C173.395 665.116 175.236 660.271 175.301 659.981C175.366 659.69 175.495 658.915 175.301 658.592C175.152 658.29 175.075 657.959 175.075 657.623C175.075 657.623 175.592 655.878 175.624 655.62C175.656 655.361 176.496 654.942 176.496 654.619C176.496 654.296 177.659 648.933 177.659 648.74C177.659 648.546 177.11 647.997 177.078 647.577C177.045 647.157 177.724 644.347 177.724 644.056C177.709 643.468 177.774 642.882 177.917 642.312C177.917 642.312 178.531 642.312 178.466 641.892C178.402 641.472 178.466 636.982 178.466 636.982C178.466 636.982 177.174 636.659 177.174 636.078C177.088 634.571 177.088 633.062 177.174 631.555C177.336 631.329 177.853 631.168 177.853 630.942C177.853 630.716 177.562 626.226 177.853 626C178.143 625.773 249.949 599.092 249.949 599.092L254.988 605.133L254.568 606.166L260.317 612.627L261.609 612.885C261.609 612.885 271.784 625.644 272.269 626.032C273.436 627.262 274.749 628.347 276.177 629.262C277.749 630 279.41 630.532 281.119 630.845C282.682 630.882 284.246 630.828 285.803 630.683L303.148 624.223L310.965 626.323L327.536 645.09C328.602 646.116 329.915 646.85 331.347 647.222C333.488 647.522 335.646 647.684 337.807 647.706C338.809 647.48 349.791 643.636 351.406 642.796C353.246 641.864 355.007 640.784 356.671 639.566C358.105 638.535 359.436 637.366 360.644 636.078C361.888 634.489 362.63 632.566 362.776 630.554C362.776 627.679 366.006 581.908 366.006 581.908L368.073 551.9C369.085 550.921 370.165 550.015 371.303 549.187C372.272 548.67 384.773 536.428 386.517 534.457C388.261 532.487 405.058 510.328 409.903 503.319C414.748 496.31 431.9 473.182 433.354 471.276C434.807 469.37 447.986 449.957 449.504 448.051C450.238 447.093 451.071 446.216 451.991 445.435C451.991 445.435 450.635 453.704 450.57 454.382C450.618 455.103 450.618 455.826 450.57 456.547C450.57 456.934 450.57 457.548 450.053 457.677C449.536 457.806 449.439 458.291 449.439 458.291V459.551C449.653 460.842 449.75 462.15 449.73 463.459C449.439 463.911 449.536 464.816 449.439 465.139C449.343 465.462 448.6 466.398 448.47 466.786C448.341 467.174 448.47 467.367 448.47 468.143C448.47 468.918 448.697 470.985 448.697 471.664C448.697 472.342 449.149 475.378 449.149 475.96C449.149 476.541 449.149 477.93 449.149 477.93C449.149 477.93 449.504 483.195 449.439 484.39C449.316 485.464 449.316 486.547 449.439 487.62C449.644 488.611 449.773 489.615 449.827 490.624C449.744 491.258 449.615 491.884 449.439 492.498C449.439 492.821 448.987 493.402 449.439 494.016C449.892 494.63 450.182 494.921 450.15 495.599C450.118 496.277 450.15 498.603 450.15 499.798C450.188 501.498 450.416 503.188 450.828 504.837C451.303 505.567 451.931 506.184 452.67 506.646L453.445 507.195C453.602 517.138 454.368 527.063 455.738 536.912C457.773 548.993 461.552 576.482 463.361 583.039C464.782 587.604 465.66 592.32 465.978 597.09V607.265C465.791 607.952 465.791 608.677 465.978 609.364C466.268 610.366 465.978 616.406 465.978 617.504C465.978 618.603 466.72 619.281 465.978 620.734C465.466 621.895 465.129 623.125 464.976 624.384C464.786 625.367 464.505 626.329 464.136 627.259C463.738 628.242 463.285 629.202 462.78 630.134C462.36 631.071 459.905 633.72 459.291 634.721C458.261 636.341 457.035 637.827 455.641 639.146C454.553 640.001 453.421 640.799 452.25 641.536C451.628 641.445 450.997 641.445 450.376 641.536L447.501 642.118C446.803 642.297 446.174 642.679 445.693 643.216C445.014 644.088 444.271 645.09 443.658 646.026C443.01 647.042 442.215 647.957 441.3 648.74C440.524 649.353 440.783 649.773 439.006 650.549C437.23 651.324 437.294 650.872 436.616 651.711C435.825 652.765 434.877 653.69 433.806 654.457C432.983 654.843 432.096 655.073 431.189 655.135C429.19 655.343 427.219 655.765 425.311 656.395C424.365 656.837 423.502 657.438 422.759 658.172C422.103 658.879 421.488 659.623 420.918 660.4C420.659 660.82 420.046 661.66 419.464 662.5C418.894 663.365 418.234 664.166 417.494 664.89C416.544 665.863 415.53 666.769 414.457 667.604C413.662 668.3 412.995 669.131 412.487 670.059C411.97 670.834 411.906 670.252 411.647 672.126C411.389 673.999 411.97 674.839 411.647 675.162C411.324 675.485 414.199 677.876 415.717 678.392C417.416 679.093 419.242 679.434 421.079 679.394C423.534 679.394 426.344 679.394 428.282 679.394C430.914 679.369 433.536 679.055 436.099 678.457C440.169 677.617 454.64 673.709 456.578 673.45C458.516 673.192 479.512 668.702 482.419 668.12C485.326 667.539 489.202 667.184 491.592 666.667C494.234 666.14 496.835 665.428 499.377 664.535C501.373 663.864 503.241 662.859 504.9 661.563C505.712 660.856 506.334 659.956 506.709 658.947C506.967 657.913 507.29 655.523 506.709 655.297C506.128 655.071 505.256 654.586 505.256 654.586C504.737 654.55 504.226 654.441 503.737 654.263C503.124 654.005 502.962 653.908 502.962 653.23C502.962 652.551 503.221 649.999 503.221 648.901C502.707 645.959 501.794 643.101 500.507 640.406C498.999 637.027 498.103 633.407 497.859 629.714C497.859 626.742 496.857 624.546 496.857 623.092C496.857 621.639 497.019 609.655 497.019 608.977C497.149 608.415 497.225 607.841 497.245 607.265C497.245 607.265 496.76 588.595 497.439 579.163C498.117 569.731 500.313 549.93 500.669 547.636C501.763 542.011 502.1 536.264 501.67 530.549C500.863 521.828 498.828 509.359 498.698 507.68C498.504 505.961 498.202 504.257 497.794 502.576C497.794 502.576 499.958 500.638 500.184 500.315C500.41 499.992 501.993 497.925 502.219 497.472C502.459 496.545 502.535 495.583 502.445 494.63C502.413 493.3 502.228 491.978 501.896 490.689C501.726 490.097 501.416 489.554 500.992 489.106C500.992 489.106 499.958 488.299 500.637 488.073C501.315 487.847 502.219 487.847 502.671 487.62C503.124 487.394 503.705 487.62 503.802 486.135C503.957 485.118 503.879 484.08 503.576 483.098C503.145 482.611 502.766 482.081 502.445 481.516C502.445 481.063 502.122 479.804 502.122 479.804C502.271 479.548 502.433 479.3 502.607 479.061C502.962 478.608 503.641 478.738 503.964 478.738C504.287 478.738 504.61 479.19 505.094 477.316C505.883 474.786 506.509 472.207 506.967 469.596C506.967 468.692 506.515 467.626 506.741 467.464C506.968 467.303 507.517 467.787 507.71 466.366C507.796 464.832 508.145 463.324 508.744 461.909C509.388 461.309 509.972 460.65 510.488 459.938C512.083 456.801 513.173 453.433 513.718 449.957C513.96 447.217 514.391 444.497 515.01 441.817C515.465 441.183 515.997 440.608 516.593 440.105C517.658 438.665 518.588 437.129 519.371 435.518C519.823 434.162 520.049 433.58 520.728 431.448C521.406 429.317 522.31 425.763 522.989 424.31C523.667 422.856 525.831 416.945 526.962 414.91C528.092 412.875 531.258 405.736 531.839 404.832C532.421 403.928 539.43 393.268 539.43 393.268C539.43 393.268 549.734 413.424 550.638 415.136C551.543 416.848 558.003 432.579 559.231 435.615C560.458 438.652 564.915 450.119 565.691 451.766C566.466 453.413 573.411 469.532 573.863 471.825C574.315 474.119 574.638 475.443 574.767 476.218C574.944 477.676 575.358 479.094 575.995 480.417C577.376 481.579 578.564 482.953 579.516 484.487C581.68 487.717 587.429 495.018 589.367 497.408C591.283 499.572 593.368 501.581 595.601 503.416C596.705 504.512 598.132 505.226 599.671 505.451C601.383 505.451 602.514 505.451 603.967 505.225C605.421 504.999 607.843 505.225 608.522 505.225C609.114 505.058 609.719 504.939 610.331 504.869C610.331 504.869 629.711 532.649 631.94 536.589C634.169 540.53 636.817 544.406 638.4 546.797C640.046 548.857 641.567 551.014 642.955 553.257C643.956 555.421 645.539 557.682 646.185 558.91C646.831 560.137 648.22 563.464 649.415 565.725C650.512 567.654 651.462 569.662 652.257 571.733C652.936 573.542 653.84 575.448 653.84 575.448C653.84 575.448 652.839 575.222 652.936 576.126C653.053 577.246 653.359 578.338 653.84 579.356C654.617 581.128 655.15 582.997 655.423 584.912C655.423 586.269 655.649 590.016 655.875 591.372C656.101 592.729 656.456 593.407 656.909 595.119C657.395 596.619 657.582 598.199 657.458 599.771C657.458 602.71 657.232 607.814 657.458 609.267C657.586 611.897 657.325 614.531 656.683 617.084C656.101 618.57 656.327 621.284 655.875 621.607C655.423 621.93 654.292 621.607 654.066 622.543C653.84 623.48 654.518 625.127 653.517 626.032L651.224 627.97C650.895 627.943 650.568 628.046 650.314 628.258C650.06 628.469 649.9 628.772 649.867 629.1C649.375 630.544 648.997 632.023 648.737 633.526C648.712 634.784 648.23 635.99 647.38 636.917C646.702 637.822 643.213 640.535 642.406 641.44C641.218 642.721 639.885 643.859 638.433 644.831C637.474 645.234 636.655 645.907 636.075 646.769C635.339 648.072 634.413 649.259 633.329 650.29C632.198 651.195 630.616 651.291 630.099 652.777C629.821 653.357 629.677 653.992 629.677 654.635C629.677 655.278 629.821 655.912 630.099 656.492C630.68 657.752 633.62 662.952 646.411 663.405C659.202 663.857 662.852 664.438 667.019 663.405C670.638 662.827 674.203 661.952 677.678 660.788C682.205 659.254 686.129 656.325 688.887 652.422C690.635 649.973 692.048 647.3 693.086 644.476C695.591 638.565 698.461 632.815 701.678 627.259C703.034 625.58 705.199 624.32 706.232 622.414C707.266 620.508 709.462 615.502 710.625 613.79C712.127 612.158 713.184 610.166 713.694 608.008C713.745 606.158 713.615 604.308 713.306 602.484V602.484ZM27.2978 656.266C27.1498 655.749 27.1498 655.2 27.2978 654.683C27.6066 654.138 27.9749 653.629 28.3961 653.165L28.6545 655.781C28.7694 656.13 28.921 656.466 29.1067 656.783C29.1067 656.783 27.5886 656.944 27.2978 656.266ZM113.832 564.336C112.153 564.11 105.079 563.723 103.237 563.723C101.396 563.723 95.3883 564.336 95.3883 564.336C95.3883 564.336 96.0343 554.387 96.0343 553.741C96.0343 553.095 96.422 547.604 96.4543 547.055C96.5459 546.46 96.6974 545.875 96.9065 545.311L112.863 554.258C113.154 556.681 113.606 561.688 113.864 564.336H113.832ZM159.377 588.336C157.988 586.786 156.566 585.267 155.113 583.685C148.653 576.869 137.573 571.41 131.146 568.665C128.738 567.66 126.254 566.85 123.716 566.242L123.522 560.428C130.629 564.659 142.386 571.701 145.423 573.801C149.848 577.031 164.448 583.975 166.644 585.009L167.678 585.397L159.377 588.336ZM173.524 613.37C173.524 613.37 174.3 616.018 170.811 606.231C169.83 603.485 168.575 600.844 167.064 598.35L187.575 591.114L212.996 599.028L173.524 613.37ZM284.284 627.001C283.021 627.306 281.704 627.306 280.441 627.001C279.193 626.773 278.057 626.137 277.211 625.192L268.78 615.114L268.489 614.823L296.236 622.123C296.236 622.123 284.898 626.646 284.284 627.001ZM261.189 606.231L254.729 597.381L277.598 588.433L302.082 616.761L261.189 606.231ZM302.954 609.461L282.573 586.592L306.475 577.644L302.954 609.461ZM355.96 631.878C355.737 633.037 355.275 634.137 354.604 635.108C354.055 636.013 351.794 637.144 351.374 637.467C350.954 637.79 334.739 643.604 334.739 643.604H332.251C331.896 643.604 308.575 616.761 308.575 616.761L313.129 575.19C313.129 575.19 317.102 574.059 319.912 572.928L344.041 563.238L361.452 556.325C361.452 556.325 355.96 631.362 355.96 632.04V631.878ZM459.033 376.698C459.033 377.021 458.354 382.932 458.258 384.514C458.161 386.097 458.032 395.949 457.676 399.438C457.321 402.926 457.902 404.767 457.676 406.706C457.45 408.644 457.999 409.322 457.676 409.936C457.387 410.388 457.159 410.877 456.998 411.389C456.632 412.306 456.361 413.259 456.19 414.232C455.964 415.685 455.609 420.014 455.609 420.014L450.764 426.474L430.253 454.35L407.254 485.359C407.254 485.359 390.716 508.939 385.871 515.626C380.645 522.513 374.807 528.913 368.429 534.748C364.908 537.591 359.126 541.531 359.126 541.531C359.126 541.531 362.065 532.035 362.356 531.583C362.647 531.13 383.965 473.44 383.965 473.44C385.323 472.445 386.617 471.366 387.841 470.21C388.48 469.592 389.197 469.059 389.973 468.627C390.329 468.401 390.555 467.044 390.555 466.592V463.879C390.555 463.201 389.424 462.425 388.068 461.844C386.711 461.263 368.687 457.548 368.687 457.548L382.932 430.932C384.644 427.701 389.844 418.237 391.653 415.169C393.462 412.1 397.661 405.09 400.956 400.794C404.137 396.975 407.534 393.34 411.13 389.909C411.13 389.909 418.624 384.159 422.468 381.995C426.312 379.831 437.068 374.63 437.068 374.63L458.484 363.971V365.134C458.186 366.185 458.034 367.271 458.032 368.364C458.303 370.161 458.681 371.941 459.162 373.694C459.258 374.718 459.215 375.75 459.033 376.762V376.698Z" fill="black"/>
</g>
<circle cx="102.47" cy="643.774" r="78.9369" fill="white"/>
<g clip-path="url(#clip2)">
<path d="M103.013 617.036C97.7715 617.036 92.6478 618.591 88.2897 621.503C83.9316 624.415 80.5348 628.554 78.529 633.396C76.5232 638.239 75.9984 643.567 77.0209 648.708C78.0435 653.849 80.5675 658.571 84.2738 662.277C87.98 665.983 92.7021 668.507 97.8428 669.53C102.984 670.552 108.312 670.027 113.155 668.022C117.997 666.016 122.136 662.619 125.048 658.261C127.96 653.903 129.514 648.779 129.514 643.538C129.514 636.509 126.722 629.768 121.752 624.798C116.782 619.828 110.042 617.036 103.013 617.036V617.036ZM103.013 646.482C102.431 646.482 101.861 646.31 101.377 645.986C100.893 645.662 100.515 645.203 100.293 644.664C100.07 644.126 100.011 643.534 100.125 642.963C100.239 642.392 100.519 641.867 100.931 641.455C101.343 641.044 101.867 640.763 102.439 640.65C103.01 640.536 103.602 640.594 104.14 640.817C104.678 641.04 105.138 641.417 105.461 641.902C105.785 642.386 105.958 642.955 105.958 643.538C105.958 644.319 105.647 645.068 105.095 645.62C104.543 646.172 103.794 646.482 103.013 646.482Z" fill="black"/>
<path d="M103.013 564.042C87.2902 564.042 71.9205 568.704 58.8475 577.439C45.7744 586.174 35.5852 598.59 29.5684 613.116C23.5515 627.642 21.9773 643.626 25.0446 659.046C28.112 674.467 35.6832 688.632 46.8009 699.75C57.9186 710.867 72.0834 718.439 87.5041 721.506C102.925 724.573 118.909 722.999 133.435 716.982C147.961 710.965 160.376 700.776 169.111 687.703C177.846 674.63 182.509 659.26 182.509 643.538C182.507 622.455 174.131 602.236 159.223 587.328C144.315 572.42 124.096 564.044 103.013 564.042V564.042ZM103.013 672.983C97.1891 672.983 91.4961 671.256 86.6538 668.021C81.8114 664.785 78.0373 660.187 75.8086 654.806C73.5799 649.426 72.9968 643.505 74.1329 637.793C75.2691 632.081 78.0736 626.834 82.1916 622.716C86.3097 618.598 91.5565 615.794 97.2684 614.658C102.98 613.521 108.901 614.105 114.281 616.333C119.662 618.562 124.261 622.336 127.496 627.178C130.732 632.021 132.459 637.714 132.459 643.538C132.459 651.347 129.356 658.837 123.834 664.359C118.312 669.881 110.822 672.983 103.013 672.983Z" fill="black"/>
<path d="M40.4109 623.289C40.1755 623.29 39.9435 623.234 39.7342 623.126C39.5249 623.018 39.3446 622.862 39.2084 622.67C39.0722 622.478 38.9841 622.256 38.9516 622.023C38.9191 621.79 38.943 621.553 39.0215 621.331C42.1871 612.21 47.2656 603.871 53.9165 596.873C60.5675 589.875 68.6373 584.379 77.5853 580.754C77.7671 580.667 77.9649 580.618 78.1665 580.61C78.3681 580.602 78.5691 580.635 78.7573 580.708C78.9454 580.781 79.1166 580.891 79.2603 581.033C79.4041 581.175 79.5172 581.344 79.5929 581.531C79.6686 581.718 79.7051 581.919 79.7003 582.12C79.6954 582.322 79.6493 582.52 79.5647 582.704C79.4801 582.887 79.3589 583.051 79.2086 583.185C79.0582 583.32 78.8819 583.422 78.6905 583.486C70.1306 586.953 62.4108 592.211 56.0485 598.905C49.6862 605.6 44.8282 613.577 41.8003 622.302C41.6991 622.59 41.5112 622.839 41.2623 623.016C41.0135 623.193 40.7161 623.288 40.4109 623.289V623.289Z" fill="white"/>
<path d="M103.013 710.876C102.72 710.876 102.439 710.76 102.231 710.552C102.024 710.345 101.908 710.064 101.908 709.771C101.908 709.478 102.024 709.197 102.231 708.989C102.439 708.782 102.72 708.666 103.013 708.666C120.284 708.645 136.841 701.775 149.054 689.562C161.266 677.35 168.136 660.793 168.157 643.522C168.157 643.229 168.273 642.948 168.481 642.74C168.688 642.533 168.969 642.417 169.262 642.417C169.555 642.417 169.836 642.533 170.044 642.74C170.251 642.948 170.367 643.229 170.367 643.522C170.346 661.379 163.243 678.499 150.617 691.125C137.99 703.752 120.87 710.855 103.013 710.876V710.876Z" fill="white"/>
<path d="M87.0585 582.199C86.3401 582.197 85.6471 581.933 85.11 581.455C84.5729 580.978 84.2288 580.321 84.1425 579.608C84.0561 578.895 84.2334 578.175 84.6411 577.583C85.0488 576.992 85.6587 576.57 86.3559 576.396C89.6751 575.579 93.0497 575.007 96.4527 574.683C97.2305 574.61 98.0056 574.849 98.6074 575.347C99.2092 575.845 99.5885 576.562 99.6618 577.34C99.735 578.118 99.4963 578.893 98.9982 579.494C98.5 580.096 97.7831 580.475 97.0053 580.549C93.8919 580.847 90.8047 581.375 87.769 582.128C87.5363 582.182 87.2974 582.206 87.0585 582.199Z" fill="white"/>
<path d="M103.013 696.169C102.72 696.169 102.439 696.053 102.231 695.845C102.024 695.638 101.908 695.357 101.908 695.064C101.908 694.771 102.024 694.49 102.231 694.282C102.439 694.075 102.72 693.959 103.013 693.959C116.381 693.944 129.197 688.627 138.65 679.174C148.102 669.722 153.419 656.906 153.434 643.538C153.434 643.244 153.55 642.963 153.758 642.756C153.965 642.549 154.246 642.432 154.539 642.432C154.832 642.432 155.113 642.549 155.321 642.756C155.528 642.963 155.644 643.244 155.644 643.538C155.628 657.491 150.077 670.868 140.211 680.735C130.344 690.602 116.967 696.152 103.013 696.169V696.169Z" fill="white"/>
<path d="M103.013 688.772C102.861 688.785 102.707 688.766 102.562 688.717C102.417 688.667 102.285 688.588 102.172 688.485C102.059 688.381 101.969 688.255 101.908 688.115C101.846 687.975 101.814 687.824 101.814 687.671C101.814 687.518 101.846 687.366 101.908 687.226C101.969 687.086 102.059 686.961 102.172 686.857C102.285 686.753 102.417 686.674 102.562 686.625C102.707 686.576 102.861 686.557 103.013 686.57C114.43 686.557 125.376 682.016 133.45 673.943C141.523 665.869 146.064 654.923 146.077 643.506C146.064 643.354 146.082 643.2 146.132 643.055C146.181 642.911 146.26 642.778 146.364 642.665C146.467 642.552 146.593 642.462 146.733 642.401C146.873 642.339 147.025 642.307 147.178 642.307C147.331 642.307 147.482 642.339 147.622 642.401C147.762 642.462 147.888 642.552 147.992 642.665C148.095 642.778 148.174 642.911 148.224 643.055C148.273 643.2 148.292 643.354 148.279 643.506C148.267 655.507 143.493 667.014 135.007 675.5C126.521 683.986 115.014 688.76 103.013 688.772V688.772Z" fill="white"/>
<path d="M117.088 634.986L200.743 604.598L205.158 616.752L121.503 647.141L117.088 634.986Z" fill="black"/>
<path d="M35.2275 659.362L95.4524 639.681L99.0677 650.744L38.8428 670.425L35.2275 659.362Z" fill="black"/>
</g>
</g>
<defs>
<clipPath id="clip0">
<rect width="723" height="723" fill="white"/>
</clipPath>
<clipPath id="clip1">
<rect width="704" height="722.711" fill="white" transform="translate(9.5)"/>
</clipPath>
<clipPath id="clip2">
<rect width="158.992" height="158.992" fill="white" transform="translate(23.5171 564.042)"/>
</clipPath>
</defs>
</svg>
