<svg width="206" height="120" viewBox="0 0 206 120" fill="none" xmlns="http://www.w3.org/2000/svg">
<g clip-path="url(#clip0)">
<path d="M2.34451 54.7221C1.9147 54.7221 1.57357 55.0589 1.518 55.5392L0.0117188 67.1348L1.518 78.5307C1.57357 79.011 1.9145 79.3455 2.34451 79.3455C2.76078 79.3455 3.09983 79.0133 3.16623 78.5349V78.5326V78.5349L4.95161 67.1346L3.16623 55.5369C3.10191 55.0587 2.7587 54.7221 2.34451 54.7221ZM10.8154 48.3866C10.7444 47.8883 10.3923 47.5447 9.95811 47.5447C9.52165 47.5447 9.16054 47.8995 9.1008 48.3866C9.1008 48.391 7.07606 67.1348 7.07606 67.1348L9.1008 85.4677C9.15845 85.9594 9.51957 86.3142 9.95811 86.3142C10.39 86.3142 10.7424 85.9685 10.8131 85.4724L13.1168 67.1348L10.8154 48.3866ZM42.7235 31.0932C41.8928 31.0932 41.206 31.7823 41.1662 32.6579L39.5536 67.1504L41.1662 89.4414C41.2082 90.3123 41.8928 90.9993 42.7235 90.9993C43.5498 90.9993 44.2343 90.31 44.283 89.4369V89.4437L46.1061 67.1504L44.283 32.6579C44.2341 31.7823 43.5496 31.0932 42.7235 31.0932ZM26.2089 43.0815C25.571 43.0815 25.0505 43.5979 24.9993 44.287L23.1829 67.1414L24.9993 89.2526C25.048 89.9373 25.5708 90.4536 26.2089 90.4536C26.8402 90.4536 27.3608 89.9373 27.4163 89.2526L29.4808 67.1414L27.4163 44.2824C27.3608 43.5979 26.8402 43.0815 26.2089 43.0815ZM59.5061 90.9972C60.5362 90.9972 61.3735 90.1552 61.4155 89.0775L62.9974 67.1616L61.4178 21.2395C61.3758 20.1618 60.5382 19.32 59.5084 19.32C58.4694 19.32 57.63 20.1641 57.5964 21.2418L56.1942 67.1593L57.5964 89.0842C57.6297 90.153 58.4692 90.9972 59.5061 90.9972ZM93.8641 91.1006C95.2819 91.1006 96.4517 89.9174 96.4781 88.4626V88.4782V88.4626L97.5814 67.1751L96.4779 14.1385C96.4535 12.686 95.2817 11.5008 93.8639 11.5008C92.444 11.5008 91.2722 12.6839 91.2499 14.1408L90.2642 67.1572C90.2642 67.1909 91.2499 88.4759 91.2499 88.4759C91.2724 89.9172 92.4463 91.1006 93.8641 91.1006ZM76.5543 91.0175C77.7883 91.0175 78.7828 90.0138 78.8161 88.7343V88.7499L80.1584 67.1663L78.8138 20.9119C78.7805 19.6321 77.786 18.631 76.552 18.631C75.3092 18.631 74.3147 19.6324 74.2881 20.9119L73.0942 67.1686L74.2904 88.7478C74.317 90.0138 75.3115 91.0175 76.5543 91.0175ZM34.4341 90.8154C35.1673 90.8154 35.7611 90.2203 35.8165 89.4369L37.7615 67.1416L35.8165 45.9328C35.7634 45.1493 35.1698 44.5587 34.4341 44.5587C33.69 44.5587 33.0962 45.1536 33.0497 45.9418L31.3372 67.1416L33.0497 89.4348C33.0984 90.2203 33.6898 90.8154 34.4341 90.8154ZM18.0504 89.5941C18.5864 89.5941 19.0206 89.1652 19.0826 88.5725L21.2668 67.1369L19.0847 44.8933C19.0203 44.2984 18.5862 43.8694 18.0502 43.8694C17.5074 43.8694 17.0732 44.3005 17.0179 44.8933L15.0951 67.1369L17.0179 88.5681C17.0712 89.1629 17.5053 89.5941 18.0504 89.5941ZM85.1761 20.1418C83.8359 20.1418 82.7613 21.2218 82.7349 22.6047L81.6451 67.1707L82.7349 88.6151C82.7615 89.9801 83.8336 91.0601 85.1761 91.0601C86.514 91.0601 87.5819 89.9824 87.6128 88.5995V88.6174L88.8355 67.173L87.6128 22.6C87.5817 21.2218 86.5138 20.1418 85.1761 20.1418ZM51.0837 91.0421C52.0097 91.0421 52.7739 90.2764 52.8183 89.2998L54.5196 67.157L52.8183 24.7754C52.7717 23.7965 52.0097 23.0333 51.0837 23.0333C50.1489 23.0333 49.3869 23.7988 49.347 24.7754L47.8407 67.157L49.3493 89.3089C49.3867 90.2764 50.1487 91.0421 51.0837 91.0421ZM70.0815 88.952V88.9406L71.5434 67.1639L70.0815 19.695C70.0459 18.5165 69.1288 17.5915 67.9968 17.5915C66.8581 17.5915 65.941 18.5142 65.9102 19.695L64.6121 67.1616L65.9123 88.9497C65.9433 90.117 66.8606 91.0396 67.997 91.0396C69.1311 91.0396 70.0438 90.117 70.0817 88.9429V88.952H70.0815ZM180.661 39.8015C177.189 39.8015 173.878 40.5132 170.861 41.795C168.845 18.6534 149.696 0.5 126.339 0.5C120.624 0.5 115.053 1.64053 110.133 3.56891C108.221 4.31879 107.711 5.09103 107.694 6.58847V88.0829C107.714 89.6544 108.916 90.9632 110.43 91.1183C110.494 91.125 180.207 91.1609 180.659 91.1609C194.65 91.1609 205.994 79.664 205.994 65.4823C205.994 51.3004 194.652 39.8015 180.661 39.8015ZM102.514 6.51675C100.993 6.51675 99.7433 7.783 99.7211 9.33866L98.578 67.1819L99.7233 88.1751C99.7433 89.7086 100.993 90.9725 102.514 90.9725C104.032 90.9725 105.281 89.7086 105.303 88.1527V88.1774L106.546 67.1819L105.303 9.33423C105.281 7.783 104.032 6.51675 102.514 6.51675ZM20.4717 107.485C17.4745 106.771 16.6636 106.389 16.6636 105.186C16.6636 104.337 17.3392 103.459 19.364 103.459C21.094 103.459 22.4454 104.171 23.6595 105.43L26.3865 102.75C24.6034 100.862 22.4433 99.7393 19.5016 99.7393C15.7711 99.7393 12.7473 101.874 12.7473 105.352C12.7473 109.128 15.1798 110.251 18.6621 111.07C22.2263 111.889 22.8754 112.439 22.8754 113.672C22.8754 115.122 21.8187 115.753 19.5813 115.753C17.7715 115.753 16.0702 115.124 14.7457 113.56L12.0182 116.025C13.4492 118.16 16.2072 119.5 19.3638 119.5C24.5253 119.5 26.7936 117.037 26.7936 113.398C26.7938 109.236 23.4709 108.196 20.4717 107.485ZM37.8697 99.7393C32.7128 99.7393 29.6623 103.789 29.6623 109.62C29.6623 115.45 32.7126 119.498 37.8697 119.498C43.0269 119.498 46.0815 115.45 46.0815 109.62C46.0815 103.789 43.0269 99.7393 37.8697 99.7393ZM37.8697 115.697C34.8195 115.697 33.5478 113.041 33.5478 109.622C33.5478 106.2 34.8193 103.545 37.8697 103.545C40.9246 103.545 42.1917 106.2 42.1917 109.622C42.1917 113.041 40.9246 115.697 37.8697 115.697ZM61.3425 110.798C61.3425 113.863 59.8539 115.753 57.4526 115.753C55.0491 115.753 53.5913 113.809 53.5913 110.744V100.038H49.8078V110.798C49.8078 116.38 52.8892 119.5 57.4524 119.5C62.2595 119.5 65.1237 116.297 65.1237 110.745V100.038H61.3425V110.798ZM81.4344 108.143C81.4344 109.211 81.4875 111.618 81.4875 112.33C81.244 111.836 80.6238 110.879 80.165 110.165L73.4641 100.036H69.8465V119.2H73.5748V110.767C73.5748 109.699 73.5215 107.292 73.5215 106.58C73.763 107.072 74.3876 108.03 74.844 108.744L81.7864 119.199H85.1624V100.036H81.4342V108.143H81.4344ZM95.9376 100.038H90.023V119.202H95.6649C100.527 119.202 105.337 116.353 105.337 109.62C105.337 102.611 101.338 100.038 95.9376 100.038ZM95.6649 115.479H93.8044V103.762H95.8025C99.801 103.762 101.449 105.704 101.449 109.62C101.449 113.124 99.637 115.479 95.6649 115.479ZM117.031 103.542C118.732 103.542 119.813 104.31 120.489 105.624L124 103.982C122.81 101.493 120.648 99.7393 117.084 99.7393C112.146 99.7393 108.686 103.789 108.686 109.62C108.686 115.668 112.006 119.498 116.948 119.498C120.38 119.498 122.648 117.884 123.944 115.174L120.759 113.257C119.759 114.956 118.758 115.695 117.057 115.695C114.221 115.695 112.573 113.066 112.573 109.62C112.572 106.064 114.198 103.542 117.031 103.542ZM131.055 100.038H127.274V119.202H138.638V115.421H131.055V100.038ZM148.6 99.7393C143.439 99.7393 140.388 103.789 140.388 109.62C140.388 115.45 143.439 119.498 148.6 119.498C153.757 119.498 156.809 115.45 156.809 109.62C156.81 103.789 153.757 99.7393 148.6 99.7393ZM148.6 115.697C145.545 115.697 144.278 113.041 144.278 109.622C144.278 106.2 145.545 103.545 148.6 103.545C151.648 103.545 152.917 106.2 152.917 109.622C152.917 113.041 151.648 115.697 148.6 115.697ZM172.068 110.798C172.068 113.863 170.586 115.753 168.183 115.753C165.775 115.753 164.319 113.809 164.319 110.744V100.038H160.538V110.798C160.538 116.38 163.617 119.5 168.183 119.5C172.99 119.5 175.852 116.297 175.852 110.745V100.038H172.068V110.798ZM186.491 100.038H180.579V119.202H186.221C191.086 119.202 195.89 116.353 195.89 109.62C195.89 102.611 191.894 100.038 186.491 100.038ZM186.221 115.479H184.358V103.762H186.358C190.352 103.762 192 105.704 192 109.62C192.001 113.124 190.191 115.479 186.221 115.479Z" fill="white"/>
</g>
<defs>
<clipPath id="clip0">
<rect width="206" height="119" fill="white" transform="translate(0 0.5)"/>
</clipPath>
</defs>
</svg>
